{"title":"WWE SmackDown 20.05.2011","uid":6408726,"size":392022036,"categoryP":"video","categoryS":"tv_shows","magnet":"?xt=urn:btih:0282b2f888c32f11fc8306fbb13eef082ffcd161&amp;dn=WWE+SmackDown+20.05.2011&amp;tr=udp%3A%2F%2Ftracker.openbittorrent.com%3A80&amp;tr=udp%3A%2F%2Fopen.demonii.com%3A1337&amp;tr=udp%3A%2F%2Ftracker.coppersurfer.tk%3A6969&amp;tr=udp%3A%2F%2Fexodus.desync.com%3A6969","seeders":0,"leechers":1,"uploader":"spyke1998","files":1,"time":1305899744,"description":"   Video\n      Format : WMV2\n      Codec ID : WMV2\n      Codec ID/Info : Windows Media Video 8\n      Duration : 1h 28mn\n      Bit rate : 512 Kbps\n      Width : 480 pixels\n      Height : 272 pixels\n      Display aspect ratio : 16:9\n      Frame rate : 25.000 fps\n      Resolution : 24 bits\n      Bits/(Pixel*Frame) : 0.157\n      Stream size : 323 MiB (86%)\n   Audio #1\n      ID : 1\n      Format : MPEG Audio\n      Format version : Version 2\n      Format profile : Layer 3\n      Codec ID : 55\n      Codec ID/Hint : MP3\n      Duration : 1h 28mn\n      Bit rate mode : Constant\n      Bit rate : 64.0 Kbps\n      Channel(s) : 2 channels\n      Sampling rate : 22.05 KHz\n      Resolution : 16 bits\n      Video delay : 20ms\n      Stream size : 40.4 MiB (11%)\n      Alignment : Aligned on interleaves\n      Interleave, duration : 26 ms (0.65 video frame)","torrent":{"xt":"urn:btih:0282b2f888c32f11fc8306fbb13eef082ffcd161","amp;dn":"WWE+SmackDown+20.05.2011","amp;tr":["udp%3A%2F%2Ftracker.openbittorrent.com%3A80","udp%3A%2F%2Fopen.demonii.com%3A1337","udp%3A%2F%2Ftracker.coppersurfer.tk%3A6969","udp%3A%2F%2Fexodus.desync.com%3A6969"],"infoHash":"0282b2f888c32f11fc8306fbb13eef082ffcd161","infoHashBuffer":{"type":"Buffer","data":[2,130,178,248,136,195,47,17,252,131,6,251,177,62,239,8,47,252,209,97]},"announce":[],"urlList":[]}}